<svg xmlns="http://www.w3.org/2000/svg" id="Layer_1" x="0" y="0" version="1.1" viewBox="0 0 432 432"><style>.st1{fill:#904175}.st2{fill:#b76384}.st3{fill:#78cab3}.st4{fill:#a7d6a8}.st5{fill:#dc8d6f}.st6{fill:#d8d14b}.st7{fill:#e2b94e}.st8{fill:#bed977}</style><path fill="#53bdb9" d="M414 183v90.7h-8.2v24.8h-8.3V315h-8.3v16.5h-8.3v8.3h-8.3v8.3h-8.3v8.3H356v8.3h-8.3v8.3h-8.2v8.2h-8.3v8.3h-16.5v8.3h-16.5v8.3h-16.5v-8.2h8.3v-8.2h8.3v-8.3h16.5v-8.2h8.3v-8.3h16.5v-8.2h8.2v-8.3h8.2v-8.2h8.2v-16.5h8.2v-8.2h8.2V299h8.3v-16.5h8.2v-33h8.2v-66c3.2-.5 5.9-.5 8.7-.5z"/><path d="M18 232.5v-74.2h8.2v-24.7h8.2v-16.5h8.3v-16.5h8.2v-8.3h8.3v-8.2h8.3v-8.3h8.3v-8.2h8.3v-8.3h8.3v-8.2h8.3v-8.3h16.5v-8.3h16.5v16.6h-16.6v8.3h-8.3v8.3H92.3V76H84v8.3h-8.2v8.2h-8.3V109h-8.3v8.3h-8.3v16.5h-8.3v16.5h-8.2v33h-8.2v49.5c-2.7-.3-5.4-.3-8.2-.3z" class="st1"/><path d="M133.5 42.8v-8.3h8.3v-8.2h16.5v-8.2c.3 0 .6-.1.8-.1h40.5v8.2H183v8.3h-33v8.2c-5.6.1-11 .1-16.5.1z" class="st2"/><path d="M414 183h-16.5v-33h-8.2v-24.8h8.2v8.2h8.3v24.8h8.1c.1.2.1.3.1.5V183z" class="st3"/><path d="M18 232.5h8.2V249h8.3v33h8.2v8.2h-8.2v8.3h-8.2v-24.7h-8.2c0-.3-.1-.6-.1-.8v-40.5z" class="st2"/><path d="M397.5 125.3h-8.2v8.3H381v-16.5h-8.2v-8.2h-8.3V84.1h8.2v8.2h8.2v8.3h8.3v16.5h8.3v8.2z" class="st4"/><path d="M34.5 298.5v-8.3h8.2v8.3H51V315h8.2v8.2h8.2v8.2h-8.2v8.3H51v-8.2h-8.3V315h-8.3c.1-5.5.1-11 .1-16.5z" class="st5"/><path d="M133.5 397.5h-16.4v-8.2h-16.5V381h-8.3v-16.6h16.5v8.3h8.2v8.2h16.5v16.6zM290.3 26.3h8.2v8.2H315v8.2h16.5v16.6h-16.6V51h-16.5v-8.3h-8.2c.1-5.5.1-10.9.1-16.4z" class="st6"/><path d="M282 397.5v8.2h-8.2v8.2c-.4 0-.6.1-.9.1h-48.6v-8.2h24.8v-8.3H282z" class="st3"/><path d="M290.3 26.3v16.4H282v-8.3h-33V18h24.7v8.3h16.6z" class="st7"/><path d="M323.2 59.3h8.3V51h8.2v8.2h8.3v8.3h8.2v8.2h8.3v16.6h-8.3V84H348v-8.2h-8.2v-8.3h-16.5c-.1-2.8-.1-5.5-.1-8.2zM133.5 397.5v-8.3H150v8.3h24.7v16.4h-16.5v-8.2h-24.8c.1-2.7.1-5.5.1-8.2z" class="st8"/><path d="M92.3 364.5v8.3h-8.2v-8.2h-8.3v-8.3h-8.2v-8.2h-8.3v-16.6h8.2v8.3h8.3v8.2H84v8.2h8.3v8.3z" class="st7"/><path d="M174.7 414v-16.4h8.3v8.2h41.2v8.2h-49.5z" class="st4"/><path d="M249 18v8.2h-49.4V18H249z" class="st5"/><path d="M141.7 26.3v8.2h-8.3v-8.2h8.3z" class="st1"/><path d="M282 397.5v-8.2h8.3v8.2H282z" class="st3"/><path d="M257.3 92.2h8.3v82.6h-8.3v8.2h-8.2v16.5h-8.2V216h-8.3v8.3h-8.2v16.5h-8.2v16.5H208v8.2h-8.3v16.6h-8.2v8.2h-8.2v8.3h-16.5v8.2h-24.7v8.3h-16.5v-8.2h8.3v-16.5h8.3v-8.3h8.2v-16.5h8.2v-16.5h8.3v-16.6h8.3v-8.2h8.2v-16.5h8.2v-16.5h8.3V183h8.3v-16.5h8.2V150h8.2v-8.2h8.3v-16.6h8.3v-16.5h8.2v-8.2h8.2c-.3-2.9-.3-5.6-.3-8.3z" class="st6"/><path d="M257.3 92.2v8.2h-8.2v8.2h-8.2v16.5h-8.3v16.6h-8.3v8.2h-8.2v16.5h-8.2v16.5h-8.3v8.3h-8.3v16.5h-8.2v16.5h-8.2v8.2h-8.3V249h-8.3v16.5h-8.2V282h-8.2v8.3h-8.3v16.5h-8.3v8.2h-33v-8.2h8.1v-16.5h8.3V282h8.2v-16.5h8.3V249h8.2v-16.5h8.2V216h-8.2v-8.3h8.3v-16.6h8.2v-16.5h8.3v-8.3h8.2v-16.5h24.7v-16.4h8.2v-16.5h8.3v-8.3h8.2V92.1h8.2v-8.3h8.2v-8.2h8.2v-8.3h8.2v-8.2h8.3c.4 11.2.4 22.2.4 33.1z" class="st7"/><path d="M191.3 290.2V282h8.2v-16.6h8.3v-8.2h8.2v-16.5h8.2v-16.5h8.2v-8.3h8.3v-16.5h8.2v-16.5h8.2v-8.2h8.3v-16.6h8.2v8.2h16.5v8.3h16.5v16.5h-8.3v8.3H290v16.5h-8.2v16.5h-8.3v8.3h-8.3v16.5H257v16.5h-8.3v8.3h-8.3v16.5h-8.2V315H224v-8.2h-8.2v-8.2h-8.3v-8.3c-5.3-.1-10.8-.1-16.2-.1z" class="st8"/><path d="M232.5 315v-16.5h8.2V282h8.3v-8.3h8.3v-16.5h8.2v-16.5h8.3v-8.3h8.3v-16.5h8.2v-16.5h8.3v-8.3h8.3v-16.5h8.2v8.2h16.5v8.2h24.8v8.3h-8.3v8.3h-8.2v16.5h-8.3v8.2h-8.2v8.3h-16.5v8.2h-8.2v8.3h-16.5v66H274v16.5h-8.2v8.2h-8.2v-8.3h-8.3v-8.2h-8.2v-8.2h-8.3c-.3-2.6-.3-5.4-.3-8.1z" class="st4"/><path d="M174.8 150h-8.2v16.5h-8.2v8.3h-8.3v16.5h-8.2v16.6h-16.5v-8.2h-8.2v-16.5h-8.3v-16.6h8.3v-16.5h8.2v-8.2h49.5c-.1 2.6-.1 5.3-.1 8.1z" class="st5"/><path d="M125.3 141.7v8.2h-8.2v16.5h-8.3v8.3h-8.2v-8.2h-8.3v-8.3h-8.2v-16.5h-8.2v-8.2h49.5c-.1 2.8-.1 5.5-.1 8.2z" class="st2"/><path d="M339.8 224.3v-16.5h8.2v-8.3h24.7v8.3h-8.2v8.2H348v8.3h-8.2zM265.5 348v-8.2h8.2v-16.5h8.2v41.2h-8.2v-8.2h-8.3c.1-2.8.1-5.5.1-8.3zm66-115.5v-8.2h8.3v8.2h-8.3z" class="st3"/></svg>